<svg xmlns="http://www.w3.org/2000/svg" xmlns:xlink="http://www.w3.org/1999/xlink" width="1099.84" height="824.882" viewBox="0 0 1099.84 824.882"><g opacity=".6"><defs><path id="a" d="M592.9 79.788h384.256v596h-384.256z"/></defs><clipPath id="b"><use xlink:href="#a" overflow="visible"/></clipPath><g clip-path="url(#b)"><defs><path id="c" d="M593.9 80.787h382.256v594h-382.256z"/></defs><clipPath id="d"><use xlink:href="#c" overflow="visible"/></clipPath><g clip-path="url(#d)"><defs><path id="e" d="M592.531 80.788h383.625v594h-383.625z"/></defs><clipPath id="f"><use xlink:href="#e" overflow="visible"/></clipPath><image overflow="visible" width="775" height="1200" xlink:href="C48C7A544D0E9423.jpg" transform="matrix(.495 0 0 .495 592.531 80.787)" clip-path="url(#f)"/></g></g></g><path d="M703.674 337.5v-106.346h38.099c30.299 0 52.497 19.649 52.497 53.248s-22.349 53.098-52.648 53.098h-37.948zm37.198-19.199c17.399 0 31.949-10.8 31.949-33.898 0-23.099-14.399-34.049-31.799-34.049h-16.649v67.947h16.499zm75.751 19.199v-106.346h20.999v106.346h-20.999zm43.499-53.097c0-33.899 25.648-55.498 54.147-55.498 29.399 0 44.549 18 48.748 35.249l-19.499 6.15c-2.55-10.2-10.8-21.449-29.249-21.449-15.899 0-32.698 11.399-32.698 35.549 0 22.649 15.899 35.099 32.998 35.099 18.149 0 26.999-11.85 29.85-21.75l19.349 5.85c-4.05 16.349-19.349 36.148-49.198 36.148-29.699-.001-54.448-21.45-54.448-55.348zm159.297 8.999l-13.199 14.549v29.549h-20.699v-106.346h20.699v48.148l42.598-48.148h27.149l-42.148 46.348 42.448 59.998h-25.949l-30.899-44.098zm120.299-42.598v86.696h-20.849v-86.696h-33.599v-19.649h88.046v19.649h-33.598zm-448.195 109.946h1092.432v11.998h-1092.432zm-655.844 65.554v86.696h-20.849v-86.696h-33.599v-19.649h88.046v19.649h-33.598zm52.65 86.696v-106.346h20.999v106.346h-20.999zm98.096-108.596c28.949 0 54.748 21.149 54.748 55.498 0 34.198-25.799 55.348-54.748 55.348-28.799 0-54.598-21.149-54.598-55.348 0-34.348 25.799-55.498 54.598-55.498zm0 90.747c16.499 0 33.298-11.399 33.298-35.398s-16.799-35.398-33.298-35.398c-16.35 0-33.149 11.399-33.149 35.398s16.8 35.398 33.149 35.398zm146.248 17.849l-48.298-75.447v75.447h-20.699v-106.346h25.799l44.249 70.347v-70.347h20.699v106.346h-21.75zm113.7-24.299h-43.198l-8.85 24.299h-21.899l40.798-106.346h23.999l40.499 106.346h-22.499l-8.85-24.299zm-36.298-18.899h29.399l-14.7-40.198-14.699 40.198zm117.447 2.25h-10.8v40.948h-20.849v-106.346h41.548c20.7 0 33.899 14.249 33.899 32.698 0 14.85-8.699 26.1-22.649 30.149l22.8 43.498h-23.1l-20.849-40.947zm5.999-17.85c10.5 0 16.649-6 16.649-14.699 0-9-6.15-14.85-16.649-14.85h-16.799v29.549h16.799zm48.453-47.548h24.299l23.85 42.148 23.849-42.148h23.249l-37.498 61.647v44.699h-20.699v-44.698l-37.05-61.648zm-994.639 129.596h1092.43v11.998h-1092.43z"/></svg>