<svg xmlns="http://www.w3.org/2000/svg" width="108.283" height="83.34" viewBox="0 0 108.283 83.34"><path d="M17.926 42.721h-4.509v-2.416h4.082v-1.813h-4.082v-2.386h4.509v-1.916h-6.542v10.446h6.542zm17.917-8.531v6.748c0 2.564 1.783 3.934 4.008 3.934 2.24 0 4.022-1.37 4.022-3.934v-6.748h-2.033v6.601c0 1.37-.751 2.092-1.989 2.092-1.208 0-1.974-.722-1.974-2.092v-6.601h-2.034zm10.77 10.446h2.151l.869-2.387h4.243l.869 2.387h2.21l-3.977-10.446h-2.357l-4.008 10.446zm6.586-4.243h-2.888l1.444-3.949 1.444 3.949zm7.603-6.203v10.446h6.689v-1.944h-4.656v-8.502zm10.461 0h2.063v10.446h-2.063zm13.762 0h-8.649v1.93h3.3v8.516h2.048v-8.516h3.301zm8.265 10.446v-4.39l3.684-6.056h-2.284l-2.342 4.14-2.343-4.14h-2.387l3.639 6.056v4.39zm-81.906-33.623h2.063v10.446h-2.063zm78.842 3.035l4.744 7.411h2.137v-10.446h-2.033v6.91l-4.347-6.91h-2.534v10.446h2.033zm-78.842 53.765h2.048v-4.066h4.052v-1.871h-4.067v-2.579h4.568v-1.93h-6.601zm13.688-10.667c-2.829 0-5.363 2.077-5.363 5.451 0 3.359 2.534 5.437 5.363 5.437 2.844 0 5.378-2.077 5.378-5.437 0-3.373-2.534-5.451-5.378-5.451zm.47 8.917c-1.895.233-3.622-1.141-3.859-3.068-.237-1.927 1.108-3.678 3.002-3.91 1.895-.233 3.622 1.141 3.859 3.068.237 1.927-1.107 3.677-3.002 3.91zm14.824-5.484c0-1.812-1.297-3.212-3.33-3.212h-4.081v10.446h2.048v-4.022h1.061l2.048 4.022h2.269l-2.24-4.273c1.37-.397 2.225-1.502 2.225-2.961zm-3.713 1.459h-1.65v-2.902h1.65c1.031 0 1.635.575 1.635 1.459 0 .853-.604 1.443-1.635 1.443zm37.41-4.671l-4.008 10.446h2.151l.869-2.387h4.243l.869 2.387h2.21l-3.977-10.446h-2.357zm-.31 6.203l1.444-3.949 1.444 3.949h-2.888zm10.756-6.203h-2.033v10.446h6.689v-1.944h-4.656zm8.988 8.502v-8.502h-2.033v10.446h6.689v-1.944zm-64.56-19.545l1.29 1.481 1.194-1.04 2.036 2.304 1.397-1.238-2.025-2.292 1.204-1.049-1.291-1.481-1.214 1.058-.882-.999.04-.038c.796-.914 1.282-2.136 1.282-3.61 0-3.374-2.534-5.451-5.378-5.451-2.829 0-5.363 2.077-5.363 5.451 0 3.359 2.534 5.437 5.363 5.437.917 0 1.804-.23 2.582-.638l.949 1.074-1.184 1.031zm-5.754-6.491c-.237-1.927 1.107-3.678 3.002-3.91 1.895-.233 3.622 1.141 3.859 3.068.237 1.927-1.108 3.678-3.002 3.91-1.894.232-3.622-1.141-3.859-3.068zm-7.772-24.582h70.558v1.965h-70.558zm26.883 47.076h26.996v1.965h-26.996z" fill="#222221"/></svg>