<svg xmlns="http://www.w3.org/2000/svg" xmlns:xlink="http://www.w3.org/1999/xlink" width="1099.84" height="824.882" viewBox="0 0 1099.84 824.882"><path d="M798.307 390.129c0-.264-.056-.506-.254-.506-.109 0-.253.011-.494.077l-.539.154c-.056.011-.1.011-.121-.033l-.077-.22c-.022-.044-.012-.088.065-.132l2.674-1.31.209-.066c.066 0 .099.077.099.165s-.032 1.815-.032 3.234v.462l.011 2.585c.011.572.055.649.604.649h.396c.077 0 .11.033.11.088v.286c0 .055-.033.077-.121.077l-1.761-.033c-.319 0-1.87.033-1.925.033-.066 0-.088-.022-.088-.077v-.297c0-.066.065-.077.153-.077h.286c.605 0 .771-.033.792-.594.022-.462.012-1.672.012-2.068v-2.397zm8.766-1.87c.055 0 .11.033.11.121s-.121.286-.198.407c-.154.242-.869 1.529-1.31 2.629-.594 1.463-.825 2.409-1.122 3.509-.121.429-.418.847-.924.847-.374 0-.66-.275-.66-.693 0-.353.275-.924.484-1.288.187-.341 2.123-3.509 2.618-4.279h-2.541c-.66 0-.781.209-1.101.605-.066.088-.132.077-.231.022s-.099-.066-.065-.165l.693-2.046c.021-.066.032-.077.165-.077.12 0 .165.033.143.198-.022.154.066.209.627.209h3.312zm1.144 2.233c0-1.21.518-2.398 1.815-2.398 1.397 0 1.661 1.342 1.661 2.277 0 1.452-.583 2.333-1.793 2.333-1.43 0-1.683-1.585-1.683-2.212zm2.179 1.397c.077-.275.065-.77.065-1.738 0-1.254-.197-1.64-.462-1.64-.176 0-.318.11-.406.363-.144.374-.154 1.155-.154 1.628 0 .572.011 1.023.099 1.332.066.264.242.451.407.451.252.001.384-.186.451-.396zm-.441 3.642l-.065-.088.065-.143 4.412-7.118.088-.088.099.033.33.187.044.077-.044.11-4.444 7.184-.099.088-.089-.033-.297-.209zm3.125-2.035c0-1.21.517-2.398 1.815-2.398 1.396 0 1.661 1.342 1.661 2.277 0 1.452-.583 2.333-1.794 2.333-1.429-.001-1.682-1.585-1.682-2.212zm2.178 1.397c.077-.275.066-.77.066-1.738 0-1.254-.198-1.64-.462-1.64-.177 0-.319.11-.407.363-.144.374-.154 1.155-.154 1.628 0 .572.011 1.023.1 1.331.065.264.241.451.406.451.254.001.385-.186.451-.395z"/><defs><path id="a" d="M0 0h1099.843v824.882h-1099.843z"/></defs><clipPath><use xlink:href="#a" overflow="visible"/></clipPath><path d="M232.018 355.898h63.336v2.186h-63.336zm20.387-4.238v-14.266l-6.04 14.266h-2.842l-5.985-14.211v14.211h-3.198v-19.376h4.373l6.286 14.785 6.204-14.785h4.455v19.376h-3.253zm8.15 0v-19.376h11.97v3.061h-8.69v5.138h7.871v2.979h-7.871v5.138h8.69v3.061h-11.97zm29.027 0l-9.565-14.675v14.675h-3.28v-19.376h4.182l8.8 13.746v-13.746h3.279v19.376h-3.416zm461.176 4.238h113.087v2.186h-113.087zm24.049-23.614h3.389l-5.438 19.376h-3.389l-4.7-14.648-4.7 14.648h-3.361l-5.493-19.376h3.443l3.881 14.156 4.536-14.156h3.416l4.618 14.266 3.798-14.266zm14.437-.409c5.083 0 9.865 3.744 9.865 10.084 0 6.368-4.782 10.112-9.865 10.112s-9.839-3.744-9.839-10.112c0-6.341 4.756-10.084 9.839-10.084zm0 17.08c3.279 0 6.504-2.323 6.504-6.996s-3.225-6.996-6.504-6.996c-3.252 0-6.478 2.323-6.478 6.996s3.226 6.996 6.478 6.996zm31.652 2.705v-14.266l-6.039 14.266h-2.843l-5.984-14.211v14.211h-3.197v-19.376h4.372l6.286 14.785 6.203-14.785h4.454v19.376h-3.252zm8.151 0v-19.376h11.97v3.061h-8.69v5.138h7.87v2.979h-7.87v5.138h8.69v3.061h-11.97zm29.025 0l-9.564-14.675v14.675h-3.279v-19.376h4.181l8.8 13.746v-13.746h3.279v19.376h-3.417zm-828.398 193.672c0-24.758 15.192-39.95 35.73-52.61-23.07-16.6-36.856-26.165-36.856-50.36 0-22.789 21.382-54.018 64.427-54.018 29.541 0 50.642 18.568 50.642 38.544 0 21.382-8.159 34.042-36.012 50.078 25.04 13.224 39.951 28.416 39.951 56.269 0 23.352-22.507 51.485-61.895 51.485-41.076 0-55.987-21.101-55.987-39.388zm83.277-3.938c0-16.317-9.847-26.446-37.7-41.92-9.566 7.597-18.569 21.382-18.569 39.669 0 23.914 17.443 34.605 28.697 34.605 17.725 0 27.572-11.816 27.572-32.354zm-48.672-106.066c0 14.911 8.159 22.226 32.354 36.012 10.128-7.034 19.131-19.413 19.131-36.856 0-18.85-9.285-33.761-25.603-33.198-17.723 0-25.882 16.599-25.882 34.042zm119.004 145.172c-4.783 0-9.847.281-14.067.562-4.22.281-7.596.562-8.721.562-1.407 0-2.251 0-3.095-1.688-.844-1.97-.282-5.064 1.688-6.752 10.128-9.285 34.042-31.511 54.58-57.676 17.443-21.944 28.697-43.889 27.853-68.365-.844-20.819-13.786-34.887-32.636-34.324-16.318.844-26.728 11.816-32.917 21.944-1.407 2.251-2.251 2.251-3.376 1.688l-4.783-1.97c-.844-.562-1.125-1.406 0-3.938 4.502-10.973 19.976-42.201 60.489-42.201 30.666 0 53.455 23.352 53.455 51.204 0 23.914-11.253 46.984-42.482 76.243-16.318 15.192-28.978 25.603-37.7 33.762v1.125h48.672c18.288 0 25.602-10.973 31.792-21.382 1.407-2.532 2.25-3.095 5.064-1.688 3.095 1.407 4.22 2.532 3.376 4.502l-19.975 52.048c-.844 2.251-1.688 3.095-4.22 3.095-2.25 0-2.532-.562-3.657-2.813-1.688-3.657-7.034-3.938-18.287-3.938h-61.053zm125.193-130.824c0-30.947 13.223-61.332 46.421-61.332 35.73 0 42.482 34.323 42.482 58.237 0 37.138-14.911 59.645-45.859 59.645-36.573 0-43.044-40.513-43.044-56.55zm55.706 35.73c1.969-7.033 1.688-19.693 1.688-44.452 0-32.072-5.064-41.919-11.816-41.919-4.501 0-8.159 2.813-10.41 9.284-3.657 9.566-3.938 29.541-3.938 41.639 0 14.629.281 26.164 2.532 34.042 1.688 6.752 6.189 11.535 10.41 11.535 6.469 0 9.846-4.783 11.534-10.129zm-11.254 93.124c-.844-.562-1.688-1.406-1.688-2.25 0-1.126.844-2.251 1.688-3.658l112.818-182.028c.562-1.125 1.125-2.25 2.25-2.25.844 0 1.688.281 2.532.844l8.44 4.783c.844.562 1.125 1.125 1.125 1.969 0 .562-.281 1.407-1.125 2.813l-113.661 183.717c-.563 1.125-1.688 2.25-2.532 2.25s-1.688-.281-2.251-.844l-7.596-5.346zm79.901-52.047c0-30.947 13.223-61.332 46.421-61.332 35.73 0 42.482 34.323 42.482 58.237 0 37.137-14.911 59.645-45.859 59.645-36.573-.001-43.044-40.514-43.044-56.55zm55.706 35.73c1.969-7.033 1.688-19.694 1.688-44.452 0-32.073-5.064-41.92-11.816-41.92-4.501 0-8.159 2.813-10.41 9.284-3.657 9.565-3.939 29.541-3.939 41.639 0 14.63.282 26.165 2.532 34.042 1.688 6.753 6.189 11.535 10.41 11.535 6.47 0 9.847-4.782 11.535-10.128zm219.892-454.213l-.614-5.536c-2.188 3.28-6.972 6.561-14.284 6.561-13.054 0-24.194-9.568-24.194-25.219s11.688-25.287 24.81-25.287c12.712 0 19.751 7.449 22.144 14.899l-9.021 3.212c-1.23-4.306-5.263-9.294-13.122-9.294-7.313 0-15.241 4.989-15.241 16.471 0 10.935 7.177 16.607 15.31 16.607 8.953 0 12.438-6.014 12.985-9.431h-15.31v-8.201h24.194v25.218h-7.657zm17.155 0v-48.456h30.345v8.885h-20.913v11.072h18.931v8.406h-18.931v11.208h20.913v8.885h-30.345zm71.214 0l-22.007-34.377v34.377h-9.432v-48.456h11.755l20.161 32.054v-32.054h9.432v48.456h-9.909zm20.982 0v-48.456h17.359c13.806 0 23.92 8.953 23.92 24.262s-10.182 24.194-23.988 24.194h-17.291zm16.95-8.748c7.928 0 14.558-4.921 14.558-15.446s-6.562-15.514-14.489-15.514h-7.586v30.96h7.517zm32.532 8.748v-48.456h30.345v8.885h-20.913v11.072h18.931v8.406h-18.931v11.208h20.913v8.885h-30.345zm54.196-18.658h-4.92v18.658h-9.5v-48.456h18.931c9.432 0 15.446 6.493 15.446 14.899 0 6.766-3.964 11.892-10.32 13.737l10.388 19.82h-10.525l-9.5-18.658zm2.734-8.133c4.784 0 7.586-2.733 7.586-6.698 0-4.101-2.802-6.766-7.586-6.766h-7.654v13.464h7.654zm-288.208 107.78v-48.456h17.359c13.806 0 23.92 8.953 23.92 24.262s-10.183 24.194-23.988 24.194h-17.291zm16.95-8.748c7.928 0 14.558-4.921 14.558-15.446s-6.562-15.514-14.489-15.514h-7.586v30.96h7.517zm32.532 8.748v-48.456h9.568v48.456h-9.568zm44.765-34.309c-.479-2.666-2.665-6.834-8.816-6.834-4.579 0-7.586 2.938-7.586 6.151 0 2.666 1.709 4.784 5.263 5.467l6.766 1.299c8.816 1.708 13.532 7.449 13.532 14.284 0 7.45-6.219 14.968-17.496 14.968-12.849 0-18.521-8.27-19.272-15.173l8.748-2.323c.409 4.784 3.759 9.089 10.593 9.089 5.058 0 7.859-2.528 7.859-5.946 0-2.802-2.118-4.989-5.877-5.741l-6.767-1.367c-7.723-1.572-12.712-6.561-12.712-13.874 0-8.611 7.723-15.172 16.881-15.172 11.756 0 16.267 7.107 17.359 12.575l-8.475 2.597zm26.585 16.061v18.248h-9.432v-48.456h18.111c9.567 0 15.924 6.356 15.924 15.104 0 8.816-6.356 15.104-15.924 15.104h-8.679zm7.518-8.133c4.716 0 7.586-2.734 7.586-6.903 0-4.306-2.87-6.971-7.586-6.971h-7.449v13.874h7.449zm49.48 15.309h-19.682l-4.032 11.072h-9.979l18.59-48.456h10.935l18.453 48.456h-10.252l-4.033-11.072zm-16.539-8.611h13.396l-6.698-18.316-6.698 18.316zm51.463 1.025h-4.92v18.658h-9.5v-48.456h18.931c9.432 0 15.446 6.493 15.446 14.899 0 6.766-3.964 11.892-10.32 13.737l10.389 19.82h-10.525l-9.501-18.658zm2.735-8.133c4.784 0 7.586-2.734 7.586-6.698 0-4.101-2.802-6.766-7.586-6.766h-7.654v13.464h7.654zm25.56 26.791v-48.456h9.568v48.456h-9.568zm41.006-39.503v39.503h-9.5v-39.503h-15.309v-8.953h40.118v8.953h-15.309zm18.453-8.953h11.071l10.867 19.205 10.866-19.205h10.594l-17.086 28.089v20.367h-9.432v-20.367l-16.88-28.089zm-166.62 129.445v-29.661h-10.661v-6.356c6.492-.068 11.003-3.69 11.892-8.338h8.133v44.355h-9.364zm21.734-37.931c2.939-4.374 7.724-7.449 14.626-7.449 6.903 0 11.687 3.075 14.558 7.449 3.007 4.579 3.964 10.115 3.964 15.788s-.957 11.208-3.964 15.788c-2.871 4.374-7.654 7.45-14.558 7.45-6.902 0-11.687-3.076-14.626-7.45-3.007-4.579-3.896-10.115-3.896-15.788s.889-11.209 3.896-15.788zm7.928 27.064c1.366 2.187 3.485 3.622 6.697 3.622 3.28 0 5.263-1.435 6.63-3.622 1.776-2.666 2.46-6.629 2.46-11.277s-.684-8.611-2.46-11.277c-1.367-2.187-3.35-3.622-6.63-3.622-3.212 0-5.331 1.435-6.697 3.622-1.709 2.666-2.393 6.629-2.393 11.277s.684 8.611 2.393 11.277zm40.049 10.867v-29.661h-10.661v-6.356c6.492-.068 11.003-3.69 11.892-8.338h8.133v44.355h-9.364zm65.275 120.202c.254 5.535.305 8.916.305 14.491 0 94.787-36.912 183.901-103.938 250.927s-156.14 103.938-250.927 103.938-183.901-36.912-250.926-103.938-103.937-156.141-103.937-250.928c0-94.788 36.913-183.902 103.938-250.928 67.025-67.025 156.139-103.937 250.926-103.937 40.831 0 80.857 6.875 118.969 20.433 68.371 24.322 126.983 68.485 169.503 127.713 23.228 32.356 40.594 67.855 51.73 105.309l9.533-3.04c-11.453-38.444-29.293-74.882-53.14-108.101-43.712-60.89-103.976-106.294-174.275-131.303-39.189-13.942-80.344-21.011-122.32-21.011-49.254 0-97.037 9.648-142.022 28.675-43.449 18.377-82.468 44.685-115.975 78.192s-59.814 72.526-78.191 115.975c-19.027 44.985-28.675 92.769-28.675 142.023 0 49.254 9.647 97.037 28.675 142.023 18.377 43.448 44.685 82.468 78.191 115.975s72.526 59.814 115.975 78.191c44.985 19.027 92.769 28.675 142.022 28.675s97.037-9.647 142.023-28.675c43.448-18.377 82.468-44.685 115.975-78.191s59.814-72.526 78.191-115.975c19.027-44.986 28.675-92.77 28.675-142.023 0-5.262-.121-9.262-.342-14.491h-9.963z"/></svg>