<svg xmlns="http://www.w3.org/2000/svg" width="1099.84" height="824.882" viewBox="0 0 1099.84 824.882"><path d="M27 643.375h414.676v2.186h-414.676zm681.427-535.375l-.614-5.536c-2.188 3.28-6.972 6.561-14.284 6.561-13.054 0-24.194-9.568-24.194-25.219s11.688-25.287 24.81-25.287c12.712 0 19.751 7.449 22.144 14.899l-9.021 3.212c-1.23-4.306-5.263-9.294-13.122-9.294-7.313 0-15.241 4.989-15.241 16.471 0 10.935 7.177 16.607 15.31 16.607 8.953 0 12.438-6.014 12.985-9.431h-15.31v-8.201h24.194v25.218h-7.657zm17.155 0v-48.456h30.345v8.885h-20.913v11.072h18.931v8.406h-18.931v11.208h20.913v8.885h-30.345zm71.214 0l-22.007-34.377v34.377h-9.432v-48.456h11.755l20.161 32.054v-32.054h9.432v48.456h-9.909zm20.982 0v-48.456h17.359c13.806 0 23.92 8.953 23.92 24.262s-10.182 24.194-23.988 24.194h-17.291zm16.95-8.748c7.928 0 14.558-4.921 14.558-15.446s-6.562-15.514-14.489-15.514h-7.586v30.96h7.517zm32.532 8.748v-48.456h30.345v8.885h-20.913v11.072h18.931v8.406h-18.931v11.208h20.913v8.885h-30.345zm54.196-18.658h-4.92v18.658h-9.5v-48.456h18.931c9.432 0 15.446 6.493 15.446 14.899 0 6.766-3.964 11.892-10.32 13.737l10.388 19.82h-10.525l-9.5-18.658zm2.734-8.133c4.784 0 7.586-2.733 7.586-6.698 0-4.101-2.802-6.766-7.586-6.766h-7.654v13.464h7.654zm-288.208 107.78v-48.456h17.359c13.806 0 23.92 8.953 23.92 24.262s-10.183 24.194-23.988 24.194h-17.291zm16.95-8.748c7.928 0 14.558-4.921 14.558-15.446s-6.562-15.514-14.489-15.514h-7.586v30.96h7.517zm32.532 8.748v-48.456h9.568v48.456h-9.568zm44.765-34.309c-.479-2.666-2.665-6.834-8.816-6.834-4.579 0-7.586 2.938-7.586 6.151 0 2.666 1.709 4.784 5.263 5.467l6.766 1.299c8.816 1.708 13.532 7.449 13.532 14.284 0 7.45-6.219 14.968-17.496 14.968-12.849 0-18.521-8.27-19.272-15.173l8.748-2.323c.409 4.784 3.759 9.089 10.593 9.089 5.058 0 7.859-2.528 7.859-5.946 0-2.802-2.118-4.989-5.877-5.741l-6.767-1.367c-7.723-1.572-12.712-6.561-12.712-13.874 0-8.611 7.723-15.172 16.881-15.172 11.756 0 16.267 7.107 17.359 12.575l-8.475 2.597zm26.585 16.061v18.248h-9.432v-48.456h18.111c9.567 0 15.924 6.356 15.924 15.104 0 8.816-6.356 15.104-15.924 15.104h-8.679zm7.518-8.133c4.716 0 7.586-2.734 7.586-6.903 0-4.306-2.87-6.971-7.586-6.971h-7.449v13.874h7.449zm49.48 15.309h-19.682l-4.032 11.072h-9.979l18.59-48.456h10.935l18.453 48.456h-10.252l-4.033-11.072zm-16.539-8.611h13.396l-6.698-18.316-6.698 18.316zm51.463 1.025h-4.92v18.658h-9.5v-48.456h18.931c9.432 0 15.446 6.493 15.446 14.899 0 6.766-3.964 11.892-10.32 13.737l10.389 19.82h-10.525l-9.501-18.658zm2.735-8.133c4.784 0 7.586-2.734 7.586-6.698 0-4.101-2.802-6.766-7.586-6.766h-7.654v13.464h7.654zm25.56 26.791v-48.456h9.568v48.456h-9.568zm41.006-39.503v39.503h-9.5v-39.503h-15.309v-8.953h40.118v8.953h-15.309zm18.453-8.953h11.071l10.867 19.205 10.866-19.205h10.594l-17.086 28.089v20.367h-9.432v-20.367l-16.88-28.089zm-166.62 129.445v-29.661h-10.661v-6.356c6.492-.068 11.003-3.69 11.892-8.338h8.133v44.355h-9.364zm21.734-37.931c2.939-4.374 7.724-7.449 14.626-7.449 6.903 0 11.687 3.075 14.558 7.449 3.007 4.579 3.964 10.115 3.964 15.788s-.957 11.208-3.964 15.788c-2.871 4.374-7.654 7.45-14.558 7.45-6.902 0-11.687-3.076-14.626-7.45-3.007-4.579-3.896-10.115-3.896-15.788s.889-11.209 3.896-15.788zm7.928 27.064c1.366 2.187 3.485 3.622 6.697 3.622 3.28 0 5.263-1.435 6.63-3.622 1.776-2.666 2.46-6.629 2.46-11.277s-.684-8.611-2.46-11.277c-1.367-2.187-3.35-3.622-6.63-3.622-3.212 0-5.331 1.435-6.697 3.622-1.709 2.666-2.393 6.629-2.393 11.277s.684 8.611 2.393 11.277zm40.049 10.867v-29.661h-10.661v-6.356c6.492-.068 11.003-3.69 11.892-8.338h8.133v44.355h-9.364zm-164.703 46.374v3.047h-1.319v-7.8h2.893c1.497 0 2.486 1.012 2.486 2.376 0 1.375-.989 2.376-2.486 2.376h-1.574zm1.376-1.166c.836 0 1.342-.462 1.342-1.199 0-.748-.506-1.221-1.342-1.221h-1.376v2.42h1.376zm8.293 2.684c-.285.935-1.133 1.694-2.42 1.694-1.452 0-2.739-1.056-2.739-2.872 0-1.694 1.254-2.816 2.607-2.816 1.65 0 2.618 1.089 2.618 2.784 0 .209-.022.385-.033.407h-3.916c.032.814.671 1.397 1.463 1.397.771 0 1.166-.407 1.342-.935l1.078.341zm-1.221-1.738c-.022-.627-.44-1.188-1.32-1.188-.803 0-1.266.616-1.31 1.188h2.63zm5.754-.826c-.144-.022-.286-.033-.418-.033-.99 0-1.441.572-1.441 1.573v2.552h-1.276v-5.358h1.243v.858c.253-.583.847-.924 1.551-.924.154 0 .286.022.342.033v1.299zm1.98 1.409c0 1.078.692 1.684 1.496 1.684.836 0 1.221-.583 1.342-.99l1.122.407c-.253.836-1.056 1.75-2.464 1.75-1.573 0-2.772-1.221-2.772-2.85 0-1.65 1.199-2.838 2.739-2.838 1.441 0 2.233.902 2.453 1.76l-1.144.418c-.121-.473-.484-1.001-1.299-1.001-.781-.002-1.473.581-1.473 1.66zm9.888 1.155c-.286.935-1.133 1.694-2.42 1.694-1.452 0-2.739-1.056-2.739-2.872 0-1.694 1.254-2.816 2.607-2.816 1.65 0 2.618 1.089 2.618 2.784 0 .209-.022.385-.033.407h-3.916c.032.814.671 1.397 1.463 1.397.771 0 1.166-.407 1.342-.935l1.078.341zm-1.22-1.738c-.022-.627-.44-1.188-1.32-1.188-.803 0-1.265.616-1.31 1.188h2.63zm3.893 3.267h-1.276v-5.358h1.243v.715c.352-.616.99-.869 1.584-.869 1.31 0 1.937.946 1.937 2.123v3.389h-1.276v-3.168c0-.66-.297-1.188-1.1-1.188-.727 0-1.111.561-1.111 1.265v3.091zm6.765-5.358h1.111v1.133h-1.111v2.486c0 .473.209.671.682.671.177 0 .386-.033.44-.044v1.056c-.077.033-.319.121-.781.121-.99 0-1.606-.594-1.606-1.595v-2.695h-.989v-1.133h.274c.572 0 .825-.363.825-.836v-.803h1.155v1.639zm3.828 2.289l1.375-.209c.309-.044.396-.198.396-.385 0-.451-.309-.814-1.013-.814-.671 0-1.045.429-1.1.968l-1.166-.264c.099-.924.935-1.75 2.255-1.75 1.65 0 2.277.935 2.277 2.002v2.663c0 .484.055.803.066.858h-1.188c-.011-.033-.055-.253-.055-.682-.253.407-.781.847-1.65.847-1.122 0-1.815-.77-1.815-1.617.001-.957.705-1.485 1.618-1.617zm1.771.847v-.242l-1.397.209c-.396.066-.715.286-.715.726 0 .363.274.693.781.693.715 0 1.331-.341 1.331-1.386zm3.684 2.211c.088.66.605 1.155 1.342 1.155 1.013 0 1.519-.517 1.519-1.606v-.561c-.23.418-.77.781-1.551.781-1.431 0-2.476-1.1-2.476-2.607 0-1.43 1.001-2.607 2.476-2.607.836 0 1.353.341 1.584.781v-.682h1.232v4.852c0 1.43-.737 2.761-2.751 2.761-1.419 0-2.409-.88-2.552-1.958l1.177-.309zm2.893-2.839c0-.913-.583-1.507-1.375-1.507-.814 0-1.397.594-1.397 1.507 0 .936.562 1.519 1.397 1.519.814 0 1.375-.594 1.375-1.519zm7.645 1.321c-.285.935-1.133 1.694-2.42 1.694-1.452 0-2.739-1.056-2.739-2.872 0-1.694 1.254-2.816 2.607-2.816 1.65 0 2.618 1.089 2.618 2.784 0 .209-.022.385-.033.407h-3.916c.032.814.671 1.397 1.463 1.397.771 0 1.166-.407 1.342-.935l1.078.341zm-1.221-1.738c-.022-.627-.44-1.188-1.32-1.188-.803 0-1.266.616-1.31 1.188h2.63zm10.594.583c0 1.65-1.177 2.85-2.783 2.85-1.596 0-2.772-1.199-2.772-2.85 0-1.639 1.177-2.838 2.772-2.838 1.606-.001 2.783 1.198 2.783 2.838zm-1.287 0c0-1.111-.704-1.683-1.496-1.683-.781 0-1.496.572-1.496 1.683 0 1.111.715 1.706 1.496 1.706.792-.001 1.496-.584 1.496-1.706zm4.212-3.378v.704h1.243v1.111h-1.243v4.247h-1.287v-4.247h-.935v-1.111h.935v-.737c0-1.199.771-1.925 1.87-1.925.319 0 .583.066.671.11v1.089c-.076-.022-.22-.055-.462-.055-.341 0-.792.154-.792.814zm6.831.704h1.111v1.133h-1.111v2.486c0 .473.209.671.682.671.177 0 .386-.033.44-.044v1.056c-.077.033-.319.121-.781.121-.99 0-1.606-.594-1.606-1.595v-2.695h-.989v-1.133h.274c.572 0 .825-.363.825-.836v-.803h1.155v1.639zm3.663 5.358h-1.276v-7.965h1.276v3.125c.362-.473.968-.671 1.529-.671 1.32 0 1.958.946 1.958 2.123v3.389h-1.276v-3.168c0-.66-.297-1.188-1.1-1.188-.704 0-1.09.528-1.111 1.21v3.145zm9.889-1.529c-.286.935-1.133 1.694-2.42 1.694-1.452 0-2.739-1.056-2.739-2.872 0-1.694 1.254-2.816 2.607-2.816 1.65 0 2.618 1.089 2.618 2.784 0 .209-.022.385-.033.407h-3.916c.032.814.671 1.397 1.463 1.397.771 0 1.166-.407 1.342-.935l1.078.341zm-1.221-1.738c-.022-.627-.44-1.188-1.32-1.188-.803 0-1.265.616-1.31 1.188h2.63zm6.093 1.507c.044.484.407.913 1.09.913.527 0 .803-.286.803-.616 0-.286-.198-.506-.627-.594l-.792-.176c-.946-.209-1.441-.825-1.441-1.562 0-.935.858-1.728 1.97-1.728 1.496 0 1.979.968 2.067 1.497l-1.078.308c-.044-.308-.274-.803-.989-.803-.451 0-.771.286-.771.616 0 .286.209.495.539.562l.814.165c1.012.22 1.54.836 1.54 1.628 0 .814-.66 1.716-2.024 1.716-1.552 0-2.146-1.012-2.212-1.617l1.111-.309zm5.698-1.309l1.375-.209c.309-.044.396-.198.396-.385 0-.451-.309-.814-1.013-.814-.671 0-1.045.429-1.1.968l-1.166-.264c.099-.924.935-1.75 2.255-1.75 1.65 0 2.277.935 2.277 2.002v2.663c0 .484.055.803.066.858h-1.188c-.011-.033-.055-.253-.055-.682-.253.407-.781.847-1.65.847-1.122 0-1.815-.77-1.815-1.617.001-.957.705-1.485 1.618-1.617zm1.771.847v-.242l-1.397.209c-.396.066-.715.286-.715.726 0 .363.274.693.781.693.715 0 1.331-.341 1.331-1.386zm2.904 2.222v-5.358h1.221v.682c.309-.55.979-.836 1.585-.836.704 0 1.32.319 1.605.946.419-.704 1.046-.946 1.738-.946.969 0 1.893.616 1.893 2.035v3.477h-1.232v-3.268c0-.627-.318-1.1-1.034-1.1-.671 0-1.11.528-1.11 1.188v3.18h-1.255v-3.268c0-.616-.308-1.1-1.034-1.1-.682 0-1.111.506-1.111 1.188v3.18h-1.266zm14.454-1.529c-.286.935-1.133 1.694-2.42 1.694-1.452 0-2.739-1.056-2.739-2.872 0-1.694 1.254-2.816 2.607-2.816 1.65 0 2.618 1.089 2.618 2.784 0 .209-.022.385-.033.407h-3.916c.032.814.671 1.397 1.463 1.397.771 0 1.166-.407 1.342-.935l1.078.341zm-1.221-1.738c-.022-.627-.44-1.188-1.32-1.188-.803 0-1.265.616-1.31 1.188h2.63zm8.591-.826c-.144-.022-.286-.033-.418-.033-.99 0-1.441.572-1.441 1.573v2.552h-1.276v-5.358h1.243v.858c.253-.583.847-.924 1.551-.924.154 0 .286.022.342.033v1.299zm5.862 2.564c-.286.935-1.133 1.694-2.42 1.694-1.452 0-2.739-1.056-2.739-2.872 0-1.694 1.254-2.816 2.607-2.816 1.65 0 2.618 1.089 2.618 2.784 0 .209-.022.385-.033.407h-3.916c.032.814.671 1.397 1.463 1.397.771 0 1.166-.407 1.342-.935l1.078.341zm-1.22-1.738c-.022-.627-.44-1.188-1.32-1.188-.803 0-1.265.616-1.31 1.188h2.63zm3.255 1.507c.044.484.407.913 1.09.913.527 0 .803-.286.803-.616 0-.286-.198-.506-.627-.594l-.792-.176c-.946-.209-1.441-.825-1.441-1.562 0-.935.858-1.728 1.97-1.728 1.496 0 1.979.968 2.067 1.497l-1.078.308c-.044-.308-.274-.803-.989-.803-.451 0-.771.286-.771.616 0 .286.209.495.539.562l.814.165c1.012.22 1.54.836 1.54 1.628 0 .814-.66 1.716-2.024 1.716-1.552 0-2.146-1.012-2.212-1.617l1.111-.309zm4.5 3.85v-7.448h1.232v.726c.264-.462.88-.847 1.705-.847 1.584 0 2.476 1.21 2.476 2.794 0 1.606-.979 2.816-2.52 2.816-.771 0-1.354-.33-1.629-.737v2.695h-1.264zm2.695-6.436c-.836 0-1.441.66-1.441 1.661 0 1.023.605 1.684 1.441 1.684.847 0 1.441-.66 1.441-1.684 0-1-.583-1.661-1.441-1.661zm9.196 1.662c0 1.65-1.177 2.85-2.783 2.85-1.596 0-2.772-1.199-2.772-2.85 0-1.639 1.177-2.838 2.772-2.838 1.606-.001 2.783 1.198 2.783 2.838zm-1.287 0c0-1.111-.704-1.683-1.496-1.683-.781 0-1.496.572-1.496 1.683 0 1.111.715 1.706 1.496 1.706.792-.001 1.496-.584 1.496-1.706zm3.904 2.684h-1.276v-5.358h1.243v.715c.352-.616.99-.869 1.584-.869 1.31 0 1.937.946 1.937 2.123v3.389h-1.276v-3.168c0-.66-.297-1.188-1.1-1.188-.727 0-1.111.561-1.111 1.265v3.091zm10.098-.979c0 .484.045.891.056.979h-1.222c-.021-.121-.055-.473-.055-.693-.253.451-.814.825-1.573.825-1.54 0-2.574-1.21-2.574-2.827 0-1.541 1.045-2.806 2.552-2.806.936 0 1.408.429 1.573.771v-3.235h1.243v6.986zm-2.651-.011c.837 0 1.42-.693 1.42-1.716 0-1.023-.572-1.661-1.408-1.661s-1.452.649-1.452 1.672c-.001 1.023.57 1.705 1.44 1.705zm9.174-.539c-.286.935-1.133 1.694-2.42 1.694-1.452 0-2.739-1.056-2.739-2.872 0-1.694 1.254-2.816 2.607-2.816 1.65 0 2.618 1.089 2.618 2.784 0 .209-.022.385-.033.407h-3.916c.032.814.671 1.397 1.463 1.397.771 0 1.166-.407 1.342-.935l1.078.341zm-1.22-1.738c-.022-.627-.44-1.188-1.32-1.188-.803 0-1.265.616-1.31 1.188h2.63zm3.893 3.267h-1.276v-5.358h1.243v.715c.352-.616.99-.869 1.584-.869 1.31 0 1.937.946 1.937 2.123v3.389h-1.276v-3.168c0-.66-.297-1.188-1.1-1.188-.727 0-1.111.561-1.111 1.265v3.091zm6.765-5.358h1.111v1.133h-1.111v2.486c0 .473.209.671.682.671.177 0 .386-.033.44-.044v1.056c-.077.033-.319.121-.781.121-.99 0-1.606-.594-1.606-1.595v-2.695h-.989v-1.133h.274c.572 0 .825-.363.825-.836v-.803h1.155v1.639zm3.255 3.598c.044.484.407.913 1.09.913.527 0 .803-.286.803-.616 0-.286-.198-.506-.627-.594l-.792-.176c-.946-.209-1.441-.825-1.441-1.562 0-.935.858-1.728 1.97-1.728 1.496 0 1.979.968 2.067 1.497l-1.078.308c-.044-.308-.274-.803-.989-.803-.451 0-.771.286-.771.616 0 .286.209.495.539.562l.814.165c1.012.22 1.54.836 1.54 1.628 0 .814-.66 1.716-2.024 1.716-1.552 0-2.146-1.012-2.212-1.617l1.111-.309zm8.954-3.598h1.111v1.133h-1.111v2.486c0 .473.209.671.682.671.177 0 .386-.033.44-.044v1.056c-.077.033-.319.121-.781.121-.99 0-1.606-.594-1.606-1.595v-2.695h-.989v-1.133h.274c.572 0 .825-.363.825-.836v-.803h1.155v1.639zm3.663 5.358h-1.276v-7.965h1.276v3.125c.363-.473.968-.671 1.529-.671 1.32 0 1.958.946 1.958 2.123v3.389h-1.276v-3.168c0-.66-.297-1.188-1.1-1.188-.704 0-1.09.528-1.111 1.21v3.145zm6.435-3.069l1.375-.209c.309-.044.396-.198.396-.385 0-.451-.309-.814-1.013-.814-.671 0-1.045.429-1.1.968l-1.166-.264c.099-.924.935-1.75 2.255-1.75 1.65 0 2.277.935 2.277 2.002v2.663c0 .484.055.803.066.858h-1.188c-.011-.033-.055-.253-.055-.682-.253.407-.781.847-1.65.847-1.122 0-1.815-.77-1.815-1.617 0-.957.704-1.485 1.618-1.617zm1.771.847v-.242l-1.397.209c-.396.066-.715.286-.715.726 0 .363.274.693.781.693.715 0 1.331-.341 1.331-1.386zm4.488-3.136h1.111v1.133h-1.111v2.486c0 .473.209.671.682.671.177 0 .386-.033.44-.044v1.056c-.077.033-.319.121-.781.121-.99 0-1.606-.594-1.606-1.595v-2.695h-.989v-1.133h.274c.572 0 .825-.363.825-.836v-.803h1.155v1.639zm5.984 3.598c.044.484.407.913 1.09.913.527 0 .803-.286.803-.616 0-.286-.198-.506-.627-.594l-.792-.176c-.946-.209-1.441-.825-1.441-1.562 0-.935.858-1.728 1.97-1.728 1.496 0 1.979.968 2.067 1.497l-1.078.308c-.044-.308-.274-.803-.989-.803-.451 0-.771.286-.771.616 0 .286.209.495.539.562l.814.165c1.012.22 1.54.836 1.54 1.628 0 .814-.66 1.716-2.024 1.716-1.552 0-2.146-1.012-2.212-1.617l1.111-.309zm6.116-3.598h1.111v1.133h-1.111v2.486c0 .473.209.671.682.671.177 0 .386-.033.44-.044v1.056c-.077.033-.319.121-.781.121-.99 0-1.606-.594-1.606-1.595v-2.695h-.989v-1.133h.274c.572 0 .825-.363.825-.836v-.803h1.155v1.639zm3.827 2.289l1.375-.209c.309-.044.396-.198.396-.385 0-.451-.309-.814-1.013-.814-.671 0-1.045.429-1.1.968l-1.166-.264c.099-.924.935-1.75 2.255-1.75 1.65 0 2.277.935 2.277 2.002v2.663c0 .484.055.803.066.858h-1.188c-.011-.033-.055-.253-.055-.682-.253.407-.781.847-1.65.847-1.122 0-1.815-.77-1.815-1.617.001-.957.705-1.485 1.618-1.617zm1.772.847v-.242l-1.397.209c-.396.066-.715.286-.715.726 0 .363.274.693.781.693.714 0 1.331-.341 1.331-1.386zm4.499-3.136h1.111v1.133h-1.111v2.486c0 .473.209.671.682.671.177 0 .386-.033.44-.044v1.056c-.077.033-.319.121-.781.121-.99 0-1.606-.594-1.606-1.595v-2.695h-.989v-1.133h.274c.572 0 .825-.363.825-.836v-.803h1.155v1.639zm7.215 3.829c-.285.935-1.133 1.694-2.42 1.694-1.452 0-2.739-1.056-2.739-2.872 0-1.694 1.254-2.816 2.607-2.816 1.65 0 2.618 1.089 2.618 2.784 0 .209-.022.385-.033.407h-3.916c.032.814.671 1.397 1.463 1.397.771 0 1.166-.407 1.342-.935l1.078.341zm-1.22-1.738c-.022-.627-.44-1.188-1.32-1.188-.803 0-1.266.616-1.31 1.188h2.63zm7.567 2.288c0 .484.045.891.056.979h-1.222c-.021-.121-.055-.473-.055-.693-.253.451-.814.825-1.573.825-1.54 0-2.574-1.21-2.574-2.827 0-1.541 1.045-2.806 2.552-2.806.936 0 1.408.429 1.573.771v-3.235h1.243v6.986zm-2.651-.011c.837 0 1.42-.693 1.42-1.716 0-1.023-.572-1.661-1.408-1.661s-1.452.649-1.452 1.672c-.001 1.023.571 1.705 1.44 1.705zm8.888-4.368h1.111v1.133h-1.111v2.486c0 .473.209.671.682.671.177 0 .386-.033.44-.044v1.056c-.077.033-.319.121-.781.121-.99 0-1.606-.594-1.606-1.595v-2.695h-.989v-1.133h.274c.572 0 .825-.363.825-.836v-.803h1.155v1.639zm3.663 5.358h-1.276v-7.965h1.276v3.125c.362-.473.968-.671 1.529-.671 1.32 0 1.958.946 1.958 2.123v3.389h-1.276v-3.168c0-.66-.297-1.188-1.1-1.188-.704 0-1.09.528-1.111 1.21v3.145zm9.889-1.529c-.286.935-1.133 1.694-2.42 1.694-1.452 0-2.739-1.056-2.739-2.872 0-1.694 1.254-2.816 2.607-2.816 1.65 0 2.618 1.089 2.618 2.784 0 .209-.022.385-.033.407h-3.916c.032.814.671 1.397 1.463 1.397.771 0 1.166-.407 1.342-.935l1.078.341zm-1.221-1.738c-.022-.627-.44-1.188-1.32-1.188-.803 0-1.265.616-1.31 1.188h2.63zm5.753-.826c-.144-.022-.286-.033-.418-.033-.99 0-1.441.572-1.441 1.573v2.552h-1.276v-5.358h1.243v.858c.253-.583.847-.924 1.551-.924.154 0 .286.022.342.033v1.299zm5.863 2.564c-.286.935-1.133 1.694-2.42 1.694-1.452 0-2.739-1.056-2.739-2.872 0-1.694 1.254-2.816 2.607-2.816 1.65 0 2.618 1.089 2.618 2.784 0 .209-.022.385-.033.407h-3.916c.032.814.671 1.397 1.463 1.397.771 0 1.166-.407 1.342-.935l1.078.341zm-1.221-1.738c-.022-.627-.44-1.188-1.32-1.188-.803 0-1.265.616-1.31 1.188h2.63zm-252.335 8.689c.462 0 .836.374.836.836s-.374.825-.836.825c-.451 0-.825-.363-.825-.825s.374-.836.825-.836zm-.627 8.075v-5.358h1.265v5.358h-1.265zm3.663-1.76c.044.484.407.913 1.089.913.528 0 .803-.286.803-.616 0-.286-.198-.506-.627-.594l-.792-.176c-.946-.209-1.441-.825-1.441-1.562 0-.935.858-1.727 1.969-1.727 1.496 0 1.98.968 2.068 1.496l-1.078.308c-.044-.308-.275-.803-.99-.803-.451 0-.77.286-.77.616 0 .286.209.495.539.561l.814.165c1.012.22 1.54.836 1.54 1.628 0 .814-.66 1.716-2.024 1.716-1.551 0-2.145-1.012-2.211-1.617l1.111-.308zm12.288.781c0 .484.044.891.055.979h-1.221c-.022-.121-.055-.473-.055-.693-.253.451-.814.825-1.573.825-1.54 0-2.574-1.21-2.574-2.827 0-1.54 1.045-2.805 2.552-2.805.935 0 1.408.429 1.573.77v-3.234h1.243v6.985zm-2.652-.011c.836 0 1.419-.693 1.419-1.716s-.572-1.661-1.408-1.661-1.452.649-1.452 1.672.572 1.705 1.441 1.705zm9.175-.539c-.286.935-1.133 1.694-2.42 1.694-1.452 0-2.739-1.056-2.739-2.871 0-1.694 1.254-2.816 2.607-2.816 1.65 0 2.618 1.089 2.618 2.783 0 .209-.022.385-.033.407h-3.917c.033.814.671 1.397 1.463 1.397.77 0 1.166-.407 1.342-.935l1.079.341zm-1.222-1.738c-.022-.627-.44-1.188-1.32-1.188-.803 0-1.265.616-1.309 1.188h2.629zm5.456-4.643v1.089c-.077-.022-.22-.055-.462-.055-.33 0-.792.154-.792.814v.704h3.565v5.358h-1.254v-4.247h-2.31v4.247h-1.287v-4.247h-.935v-1.111h.935v-.737c0-1.199.77-1.925 1.87-1.925.318 0 .582.066.67.11zm1.684-.176c.462 0 .836.374.836.836 0 .451-.374.825-.836.825-.462 0-.825-.374-.825-.825 0-.462.363-.836.825-.836zm3.673 8.086h-1.276v-5.358h1.243v.715c.352-.616.99-.869 1.584-.869 1.309 0 1.936.946 1.936 2.123v3.388h-1.276v-3.168c0-.66-.297-1.188-1.1-1.188-.726 0-1.111.561-1.111 1.265v3.092zm5.775-8.075c.462 0 .836.374.836.836s-.374.825-.836.825c-.451 0-.825-.363-.825-.825s.374-.836.825-.836zm-.627 8.075v-5.358h1.265v5.358h-1.265zm4.642-5.358h1.111v1.133h-1.111v2.486c0 .473.209.671.682.671.176 0 .385-.033.44-.044v1.056c-.077.033-.319.121-.781.121-.99 0-1.606-.594-1.606-1.595v-2.695h-.99v-1.133h.275c.572 0 .825-.363.825-.836v-.803h1.155v1.639zm7.217 3.829c-.286.935-1.133 1.694-2.42 1.694-1.452 0-2.739-1.056-2.739-2.871 0-1.694 1.254-2.816 2.607-2.816 1.65 0 2.618 1.089 2.618 2.783 0 .209-.022.385-.033.407h-3.917c.033.814.671 1.397 1.463 1.397.77 0 1.166-.407 1.342-.935l1.079.341zm-1.221-1.738c-.022-.627-.44-1.188-1.32-1.188-.803 0-1.265.616-1.309 1.188h2.629zm2.617 3.267v-7.965h1.276v7.965h-1.276zm3.3 2.167l1.287-2.805-2.288-4.72h1.441l1.54 3.388 1.441-3.388h1.353l-3.41 7.525h-1.364zm9.934-2.167h-1.276v-5.358h1.243v.715c.352-.616.99-.869 1.584-.869 1.309 0 1.936.946 1.936 2.123v3.388h-1.276v-3.168c0-.66-.297-1.188-1.1-1.188-.726 0-1.111.561-1.111 1.265v3.092zm10.285-2.684c0 1.65-1.177 2.849-2.783 2.849-1.595 0-2.772-1.199-2.772-2.849 0-1.639 1.177-2.838 2.772-2.838 1.606-.001 2.783 1.198 2.783 2.838zm-1.287 0c0-1.111-.704-1.683-1.496-1.683-.781 0-1.496.572-1.496 1.683s.715 1.705 1.496 1.705c.792 0 1.496-.583 1.496-1.705zm6.258 2.673c.088.66.605 1.155 1.342 1.155 1.012 0 1.518-.517 1.518-1.606v-.561c-.231.418-.77.781-1.551.781-1.43 0-2.475-1.1-2.475-2.607 0-1.43 1.001-2.607 2.475-2.607.836 0 1.353.341 1.584.781v-.682h1.232v4.852c0 1.43-.737 2.761-2.75 2.761-1.419 0-2.409-.88-2.552-1.958l1.177-.309zm2.894-2.838c0-.913-.583-1.507-1.375-1.507-.814 0-1.397.594-1.397 1.507 0 .935.561 1.518 1.397 1.518.814 0 1.375-.594 1.375-1.518zm7.645 1.32c-.286.935-1.133 1.694-2.42 1.694-1.452 0-2.739-1.056-2.739-2.871 0-1.694 1.254-2.816 2.607-2.816 1.65 0 2.618 1.089 2.618 2.783 0 .209-.022.385-.033.407h-3.917c.033.814.671 1.397 1.463 1.397.77 0 1.166-.407 1.342-.935l1.079.341zm-1.221-1.738c-.022-.627-.44-1.188-1.32-1.188-.803 0-1.265.616-1.309 1.188h2.629zm3.894 3.267h-1.276v-5.358h1.243v.715c.352-.616.99-.869 1.584-.869 1.309 0 1.936.946 1.936 2.123v3.388h-1.276v-3.168c0-.66-.297-1.188-1.1-1.188-.726 0-1.111.561-1.111 1.265v3.092zm10.098-.979c0 .484.044.891.055.979h-1.221c-.022-.121-.055-.473-.055-.693-.253.451-.814.825-1.573.825-1.54 0-2.574-1.21-2.574-2.827 0-1.54 1.045-2.805 2.552-2.805.935 0 1.408.429 1.573.77v-3.234h1.243v6.985zm-2.651-.011c.836 0 1.419-.693 1.419-1.716s-.572-1.661-1.408-1.661-1.452.649-1.452 1.672.572 1.705 1.441 1.705zm9.174-.539c-.286.935-1.133 1.694-2.42 1.694-1.452 0-2.739-1.056-2.739-2.871 0-1.694 1.254-2.816 2.607-2.816 1.65 0 2.618 1.089 2.618 2.783 0 .209-.022.385-.033.407h-3.917c.033.814.671 1.397 1.463 1.397.77 0 1.166-.407 1.342-.935l1.079.341zm-1.221-1.738c-.022-.627-.44-1.188-1.32-1.188-.803 0-1.265.616-1.309 1.188h2.629zm5.753-.826c-.143-.022-.286-.033-.418-.033-.99 0-1.441.572-1.441 1.573v2.552h-1.276v-5.358h1.243v.858c.253-.583.847-.924 1.551-.924.154 0 .286.022.341.033v1.299zm3.993 4.093v-7.965h1.254v3.267c.242-.418.858-.803 1.683-.803 1.606 0 2.475 1.221 2.475 2.794 0 1.617-.957 2.838-2.519 2.838-.759 0-1.342-.33-1.65-.847v.715h-1.243zm2.684-4.368c-.814 0-1.441.605-1.441 1.672 0 1.056.627 1.694 1.441 1.694.836 0 1.441-.638 1.441-1.694 0-1.067-.594-1.672-1.441-1.672zm4.697-3.707c.462 0 .836.374.836.836s-.374.825-.836.825c-.451 0-.825-.363-.825-.825s.374-.836.825-.836zm-.627 8.075v-5.358h1.265v5.358h-1.265zm4.312-3.069l1.375-.209c.308-.044.396-.198.396-.385 0-.451-.308-.814-1.012-.814-.671 0-1.045.429-1.1.968l-1.166-.264c.099-.924.935-1.749 2.255-1.749 1.65 0 2.277.935 2.277 2.002v2.662c0 .484.055.803.066.858h-1.188c-.011-.033-.055-.253-.055-.682-.253.407-.781.847-1.65.847-1.122 0-1.815-.77-1.815-1.617 0-.957.704-1.485 1.617-1.617zm1.771.847v-.242l-1.397.209c-.396.066-.715.286-.715.726 0 .363.275.693.781.693.715 0 1.331-.341 1.331-1.386zm3.542.462c.044.484.407.913 1.089.913.528 0 .803-.286.803-.616 0-.286-.198-.506-.627-.594l-.792-.176c-.946-.209-1.441-.825-1.441-1.562 0-.935.858-1.727 1.969-1.727 1.496 0 1.98.968 2.068 1.496l-1.078.308c-.044-.308-.275-.803-.99-.803-.451 0-.77.286-.77.616 0 .286.209.495.539.561l.814.165c1.012.22 1.54.836 1.54 1.628 0 .814-.66 1.716-2.024 1.716-1.551 0-2.145-1.012-2.211-1.617l1.111-.308zm7.964-6.315c.462 0 .836.374.836.836s-.374.825-.836.825c-.451 0-.825-.363-.825-.825s.374-.836.825-.836zm-.627 8.075v-5.358h1.265v5.358h-1.265zm4.301 0h-1.276v-5.358h1.243v.715c.352-.616.99-.869 1.584-.869 1.309 0 1.936.946 1.936 2.123v3.388h-1.276v-3.168c0-.66-.297-1.188-1.1-1.188-.726 0-1.111.561-1.111 1.265v3.092zm9.603-5.358h1.111v1.133h-1.111v2.486c0 .473.209.671.682.671.176 0 .385-.033.44-.044v1.056c-.077.033-.319.121-.781.121-.99 0-1.606-.594-1.606-1.595v-2.695h-.99v-1.133h.275c.572 0 .825-.363.825-.836v-.803h1.155v1.639zm3.652 5.358h-1.276v-7.965h1.276v3.124c.363-.473.968-.671 1.529-.671 1.32 0 1.958.946 1.958 2.123v3.388h-1.276v-3.168c0-.66-.297-1.188-1.1-1.188-.704 0-1.089.528-1.111 1.21v3.147zm9.89-1.529c-.286.935-1.133 1.694-2.42 1.694-1.452 0-2.739-1.056-2.739-2.871 0-1.694 1.254-2.816 2.607-2.816 1.65 0 2.618 1.089 2.618 2.783 0 .209-.022.385-.033.407h-3.917c.033.814.671 1.397 1.463 1.397.77 0 1.166-.407 1.342-.935l1.079.341zm-1.222-1.738c-.022-.627-.44-1.188-1.32-1.188-.803 0-1.265.616-1.309 1.188h2.629zm10.407 2.288c0 .484.044.891.055.979h-1.221c-.022-.121-.055-.473-.055-.693-.253.451-.814.825-1.573.825-1.54 0-2.574-1.21-2.574-2.827 0-1.54 1.045-2.805 2.552-2.805.935 0 1.408.429 1.573.77v-3.234h1.243v6.985zm-2.652-.011c.836 0 1.419-.693 1.419-1.716s-.572-1.661-1.408-1.661-1.452.649-1.452 1.672.572 1.705 1.441 1.705zm9.175-.539c-.286.935-1.133 1.694-2.42 1.694-1.452 0-2.739-1.056-2.739-2.871 0-1.694 1.254-2.816 2.607-2.816 1.65 0 2.618 1.089 2.618 2.783 0 .209-.022.385-.033.407h-3.917c.033.814.671 1.397 1.463 1.397.77 0 1.166-.407 1.342-.935l1.079.341zm-1.221-1.738c-.022-.627-.44-1.188-1.32-1.188-.803 0-1.265.616-1.309 1.188h2.629zm3.255 1.507c.044.484.407.913 1.089.913.528 0 .803-.286.803-.616 0-.286-.198-.506-.627-.594l-.792-.176c-.946-.209-1.441-.825-1.441-1.562 0-.935.858-1.727 1.969-1.727 1.496 0 1.98.968 2.068 1.496l-1.078.308c-.044-.308-.275-.803-.99-.803-.451 0-.77.286-.77.616 0 .286.209.495.539.561l.814.165c1.012.22 1.54.836 1.54 1.628 0 .814-.66 1.716-2.024 1.716-1.551 0-2.145-1.012-2.211-1.617l1.111-.308zm5.126-6.315c.462 0 .836.374.836.836s-.374.825-.836.825c-.451 0-.825-.363-.825-.825s.374-.836.825-.836zm-.627 8.075v-5.358h1.265v5.358h-1.265zm3.817-.011c.088.66.605 1.155 1.342 1.155 1.012 0 1.518-.517 1.518-1.606v-.561c-.231.418-.77.781-1.551.781-1.43 0-2.475-1.1-2.475-2.607 0-1.43 1.001-2.607 2.475-2.607.836 0 1.353.341 1.584.781v-.682h1.232v4.852c0 1.43-.737 2.761-2.75 2.761-1.419 0-2.409-.88-2.552-1.958l1.177-.309zm2.894-2.838c0-.913-.583-1.507-1.375-1.507-.814 0-1.397.594-1.397 1.507 0 .935.561 1.518 1.397 1.518.814 0 1.375-.594 1.375-1.518zm4.179 2.849h-1.276v-5.358h1.243v.715c.352-.616.99-.869 1.584-.869 1.309 0 1.936.946 1.936 2.123v3.388h-1.276v-3.168c0-.66-.297-1.188-1.1-1.188-.726 0-1.111.561-1.111 1.265v3.092zm10.825-7.91v1.089c-.077-.022-.22-.055-.462-.055-.33 0-.792.154-.792.814v.704h3.565v5.358h-1.254v-4.247h-2.31v4.247h-1.287v-4.247h-.935v-1.111h.935v-.737c0-1.199.77-1.925 1.87-1.925.318 0 .582.066.67.11zm1.683-.176c.462 0 .836.374.836.836 0 .451-.374.825-.836.825-.462 0-.825-.374-.825-.825 0-.462.363-.836.825-.836zm7.139 6.557c-.286.935-1.133 1.694-2.42 1.694-1.452 0-2.739-1.056-2.739-2.871 0-1.694 1.254-2.816 2.607-2.816 1.65 0 2.618 1.089 2.618 2.783 0 .209-.022.385-.033.407h-3.917c.033.814.671 1.397 1.463 1.397.77 0 1.166-.407 1.342-.935l1.079.341zm-1.221-1.738c-.022-.627-.44-1.188-1.32-1.188-.803 0-1.265.616-1.309 1.188h2.629zm2.617 3.267v-7.965h1.276v7.965h-1.276zm7.987-.979c0 .484.044.891.055.979h-1.221c-.022-.121-.055-.473-.055-.693-.253.451-.814.825-1.573.825-1.54 0-2.574-1.21-2.574-2.827 0-1.54 1.045-2.805 2.552-2.805.935 0 1.408.429 1.573.77v-3.234h1.243v6.985zm-2.651-.011c.836 0 1.419-.693 1.419-1.716s-.572-1.661-1.408-1.661-1.452.649-1.452 1.672c-.001 1.023.572 1.705 1.441 1.705zm5.203-.737c.495 0 .902.407.902.902 0 .495-.407.891-.902.891s-.891-.396-.891-.891c-.001-.495.395-.902.891-.902zm-874.118 234.983c-15.474-20.538-17.162-40.231-17.162-55.424 0-38.263 18.288-68.929 36.575-87.216 18.85-18.569 37.418-27.291 55.143-32.636 7.596-2.251 11.253-2.532 12.941-2.532s4.22 1.407 4.22 3.376c0 2.532-1.407 4.783-6.471 6.752-22.507 8.44-52.893 41.638-60.207 75.681l1.688.844c5.908-5.627 18.287-10.973 30.947-10.973 34.887 0 48.954 27.571 48.954 52.33 0 24.758-7.877 40.513-18.287 50.078-12.942 12.098-25.04 18.287-46.703 18.287-19.975.001-32.635-6.751-41.638-18.567zm68.084-35.45c0-26.727-7.877-48.391-24.195-48.391-8.159 0-13.223 1.126-16.599 4.783-5.627 5.627-5.627 17.725-5.627 37.418 0 16.318 3.658 49.798 22.789 49.798 10.409.001 23.632-4.219 23.632-43.608zm72.583 35.45c-15.474-20.538-17.162-40.231-17.162-55.424 0-38.263 18.288-68.929 36.575-87.216 18.85-18.569 37.418-27.291 55.143-32.636 7.596-2.251 11.253-2.532 12.941-2.532s4.22 1.407 4.22 3.376c0 2.532-1.407 4.783-6.471 6.752-22.507 8.44-52.893 41.638-60.207 75.681l1.688.844c5.908-5.627 18.287-10.973 30.947-10.973 34.887 0 48.954 27.571 48.954 52.33 0 24.758-7.877 40.513-18.287 50.078-12.942 12.098-25.04 18.287-46.703 18.287-19.975.001-32.635-6.751-41.638-18.567zm68.084-35.45c0-26.727-7.877-48.391-24.195-48.391-8.159 0-13.223 1.126-16.599 4.783-5.627 5.627-5.627 17.725-5.627 37.418 0 16.318 3.658 49.798 22.789 49.798 10.409.001 23.632-4.219 23.632-43.608zm52.889-81.026c0-30.947 13.223-61.332 46.421-61.332 35.73 0 42.482 34.323 42.482 58.237 0 37.138-14.911 59.645-45.859 59.645-36.573 0-43.044-40.513-43.044-56.55zm55.706 35.73c1.969-7.033 1.688-19.693 1.688-44.452 0-32.072-5.064-41.919-11.816-41.919-4.501 0-8.159 2.813-10.41 9.284-3.657 9.566-3.938 29.541-3.938 41.639 0 14.629.281 26.164 2.532 34.042 1.688 6.752 6.189 11.535 10.41 11.535 6.47 0 9.846-4.783 11.534-10.129zm-11.254 93.124c-.844-.562-1.688-1.406-1.688-2.25 0-1.126.844-2.251 1.688-3.658l112.818-182.028c.562-1.125 1.125-2.25 2.25-2.25.844 0 1.688.281 2.532.844l8.44 4.783c.844.562 1.125 1.125 1.125 1.969 0 .562-.281 1.407-1.125 2.813l-113.661 183.717c-.563 1.125-1.688 2.25-2.532 2.25-.844 0-1.688-.281-2.251-.844l-7.596-5.346zm79.901-52.047c0-30.947 13.223-61.332 46.421-61.332 35.73 0 42.482 34.323 42.482 58.237 0 37.137-14.911 59.645-45.859 59.645-36.573-.001-43.044-40.514-43.044-56.55zm55.706 35.73c1.969-7.033 1.688-19.694 1.688-44.452 0-32.073-5.064-41.92-11.816-41.92-4.501 0-8.159 2.813-10.41 9.284-3.657 9.565-3.939 29.541-3.939 41.639 0 14.63.282 26.165 2.532 34.042 1.688 6.753 6.189 11.535 10.41 11.535 6.47 0 9.847-4.782 11.535-10.128zm352.872-370.094c-43.712-60.89-103.976-106.294-174.275-131.303-39.189-13.942-80.344-21.011-122.32-21.011-49.254 0-97.037 9.648-142.022 28.675-43.449 18.377-82.468 44.685-115.975 78.192s-59.814 72.526-78.191 115.975c-7.555 17.862-13.606 36.171-18.187 54.832h10.247c15.451-61.435 47.245-117.779 93.202-163.737 67.025-67.025 156.139-103.937 250.926-103.937 40.831 0 80.857 6.875 118.969 20.433 68.371 24.322 126.983 68.485 169.503 127.713 43.435 60.503 66.393 131.985 66.393 206.719 0 94.787-36.912 183.901-103.938 250.927s-156.14 103.938-250.927 103.938c-55.248 0-108.558-12.562-156.701-36.296l-4.497 8.827c6.295 3.1 12.679 6.047 19.175 8.794 44.985 19.027 92.769 28.675 142.022 28.675s97.037-9.647 142.023-28.675c43.448-18.377 82.468-44.685 115.975-78.191s59.814-72.526 78.191-115.975c19.027-44.986 28.675-92.77 28.675-142.023.001-76.839-23.606-150.338-68.268-212.552zm-816.695 434.83c-1.284 0-2.186-.983-2.186-2.487 0-3.416 2.295-4.782 3.935-4.946v1.503c-1.12.191-2.104 1.258-2.159 2.433.055-.027.3-.137.574-.137 1.066 0 1.831.738 1.831 1.831 0 .983-.847 1.803-1.995 1.803zm5.056 0c-1.257 0-2.187-.983-2.187-2.487 0-3.416 2.323-4.782 3.936-4.946v1.503c-1.093.191-2.077 1.258-2.132 2.433.055-.027.273-.137.546-.137 1.093 0 1.831.738 1.831 1.831.001.983-.846 1.803-1.994 1.803zm5.605 12.189v-19.376h6.86c5.274 0 9.428 3.498 9.428 9.729 0 6.203-4.208 9.646-9.456 9.646h-6.832zm6.723-3.006c3.361 0 6.149-2.159 6.149-6.641 0-4.537-2.76-6.724-6.122-6.724h-3.471v13.364h3.444zm13.286 3.006v-19.376h11.97v3.061h-8.69v5.138h7.871v2.979h-7.871v5.138h8.69v3.061h-11.97zm16.183 0v-19.376h12.052v3.088h-8.772v5.438h7.87v3.033h-7.87v7.816h-3.28zm15.499 0v-19.376h3.334v19.376h-3.334zm21.099 0l-9.565-14.676v14.676h-3.28v-19.376h4.182l8.8 13.746v-13.746h3.279v19.376h-3.416zm8.341 0v-19.376h3.334v19.376h-3.334zm15.853-16.288v16.288h-3.28v-16.288h-6.285v-3.088h15.877v3.088h-6.312zm9.241 16.288v-19.376h11.97v3.061h-8.69v5.138h7.871v2.979h-7.871v5.138h8.69v3.061h-11.97zm16.182 0v-19.376h3.28v16.261h8.881v3.115h-12.161zm11.564-19.376h3.88l4.646 8.116 4.673-8.116h3.689l-6.832 11.178v8.198h-3.279v-8.198l-6.777-11.178zm39.659 19.376l-9.565-14.676v14.676h-3.28v-19.376h4.182l8.8 13.746v-13.746h3.279v19.376h-3.416zm17.004-19.786c5.083 0 9.866 3.744 9.866 10.085 0 6.367-4.782 10.111-9.866 10.111-5.083 0-9.838-3.744-9.838-10.111 0-6.341 4.755-10.085 9.838-10.085zm0 17.081c3.28 0 6.504-2.323 6.504-6.996 0-4.674-3.225-6.996-6.504-6.996-3.252 0-6.477 2.322-6.477 6.996 0 4.673 3.225 6.996 6.477 6.996zm35.206 2.705l-.246-2.46c-.847 1.422-2.842 2.87-5.93 2.87-5.056 0-9.538-3.717-9.538-10.111 0-6.368 4.728-10.085 9.756-10.085 4.7 0 7.707 2.706 8.745 5.903l-3.088 1.175c-.656-2.186-2.569-4.044-5.657-4.044-3.143 0-6.422 2.24-6.422 7.051 0 4.728 3.061 7.104 6.395 7.104 3.908 0 5.383-2.678 5.547-4.345h-6.395v-2.869h9.483v9.811h-2.65zm6.892 0v-19.376h11.97v3.061h-8.69v5.138h7.871v2.979h-7.871v5.138h8.69v3.061h-11.97zm29.027 0l-9.565-14.676v14.676h-3.28v-19.376h4.182l8.8 13.746v-13.746h3.279v19.376h-3.416zm8.341 0v-19.376h6.86c5.274 0 9.428 3.498 9.428 9.729 0 6.203-4.208 9.646-9.456 9.646h-6.832zm6.723-3.006c3.361 0 6.149-2.159 6.149-6.641 0-4.537-2.76-6.724-6.122-6.724h-3.471v13.364h3.444zm13.286 3.006v-19.376h11.97v3.061h-8.69v5.138h7.871v2.979h-7.871v5.138h8.69v3.061h-11.97zm21.894-7.652h-2.405v7.652h-3.307v-19.376h7.434c3.744 0 6.067 2.597 6.067 5.876 0 2.76-1.667 4.864-4.373 5.521l4.373 7.979h-3.717l-4.072-7.652zm1.12-2.897c2.022 0 3.334-1.175 3.334-2.951 0-1.804-1.312-2.979-3.334-2.979h-3.525v5.931h3.525zm24.165-8.827c3.716 0 5.903 2.187 5.903 5.22 0 2.05-1.203 3.58-2.87 4.182 2.05.546 3.471 2.322 3.471 4.618 0 3.115-2.405 5.356-6.012 5.356h-7.16v-19.376h6.668zm-.438 8.198c1.913 0 3.061-1.093 3.061-2.705 0-1.64-1.148-2.706-3.143-2.706h-2.896v5.411h2.978zm.355 8.391c1.968 0 3.252-1.066 3.252-2.788 0-1.667-1.121-2.842-3.143-2.842h-3.443v5.63h3.334zm10.253 2.787v-19.376h3.334v19.376h-3.334zm19.679-4.864h-8.198l-1.804 4.864h-3.471l7.542-19.376h3.799l7.542 19.376h-3.58l-1.83-4.864zm-7.051-3.034h5.903l-2.952-7.926-2.951 7.926zm24.901-6.012c-.191-1.202-1.202-2.979-3.798-2.979-1.968 0-3.334 1.312-3.334 2.787 0 1.229.765 2.159 2.269 2.487l2.788.573c3.416.684 5.247 2.843 5.247 5.575 0 3.006-2.433 5.876-6.86 5.876-4.919 0-7.187-3.17-7.488-5.958l3.061-.874c.191 2.022 1.64 3.88 4.427 3.88 2.323 0 3.525-1.175 3.525-2.678 0-1.257-.929-2.269-2.596-2.624l-2.733-.573c-2.951-.602-4.919-2.542-4.919-5.438 0-3.252 2.979-5.931 6.586-5.931 4.563 0 6.34 2.788 6.777 4.946l-2.952.931zm7.52-5.63c1.284 0 2.213.984 2.213 2.487 0 3.443-2.323 4.755-3.962 4.946v-1.476c1.12-.219 2.104-1.23 2.159-2.46-.055.055-.301.137-.574.137-1.066 0-1.804-.71-1.804-1.804 0-1.01.82-1.83 1.968-1.83zm5.056 0c1.257 0 2.186.984 2.186 2.487 0 3.443-2.323 4.755-3.935 4.946v-1.476c1.121-.219 2.104-1.23 2.131-2.46-.055.055-.273.137-.546.137-1.066 0-1.831-.71-1.831-1.804 0-1.01.847-1.83 1.995-1.83z"/></svg>